<?xml version="1.0" standalone="no"?>
<!DOCTYPE svg PUBLIC "-//W3C//DTD SVG 20010904//EN"
 "http://www.w3.org/TR/2001/REC-SVG-20010904/DTD/svg10.dtd">
<svg version="1.0" xmlns="http://www.w3.org/2000/svg"
 width="234.000000pt" height="260.000000pt" viewBox="0 0 234.000000 260.000000"
 preserveAspectRatio="xMidYMid meet">

<g transform="translate(0.000000,260.000000) scale(0.100000,-0.100000)"
fill="#000000" stroke="none">
<path d="M1252 2237 l-52 -53 0 -300 0 -300 -47 0 -48 1 -5 -50 -5 -50 -70 0
-70 0 -3 -47 -3 -47 -72 -3 -72 -3 -3 -51 -3 -50 -47 0 -47 1 -3 -47 -3 -48
-99 0 -99 0 -3 48 -3 47 -45 0 -45 0 -5 50 -5 50 -46 3 -47 3 -3 85 c-3 71 -7
88 -23 100 -26 18 -32 18 -56 -6 -20 -20 -20 -31 -18 -323 l3 -302 47 -3 47
-3 3 -47 3 -47 47 -3 47 -3 3 -47 3 -47 47 -3 47 -3 3 -47 3 -47 47 -3 47 -3
3 -47 3 -47 48 -3 47 -3 0 -180 c0 -215 2 -219 100 -219 47 0 64 4 80 20 11
11 20 24 20 30 0 21 -41 50 -70 50 -29 0 -30 1 -30 49 l0 50 48 3 47 3 3 47 3
47 47 3 47 3 3 48 3 47 49 0 49 0 3 -47 3 -48 46 -3 46 -3 7 -137 c8 -159 9
-162 98 -162 45 0 63 5 78 20 25 25 25 35 -1 61 -15 15 -30 20 -50 17 l-29 -5
0 203 0 203 48 3 47 3 3 47 3 47 47 3 47 3 3 72 3 72 47 3 47 3 3 210 c1 115
6 213 11 218 5 5 28 6 50 2 41 -7 41 -7 41 -52 0 -60 14 -83 50 -83 38 0 50
23 50 99 0 88 -16 101 -120 101 l-80 0 0 94 0 94 181 4 c177 3 181 3 200 27
11 14 19 36 17 50 l-3 26 -147 3 -148 3 0 44 0 44 210 3 c196 3 210 4 224 23
12 16 15 55 16 200 l0 181 -53 52 -53 52 -370 0 -370 0 -52 -53z m298 -151 l0
-95 -100 -3 -100 -3 0 98 0 97 100 0 100 0 0 -94z"/>
<path d="M1390 2140 c0 -6 6 -13 14 -16 26 -10 27 -36 5 -61 -28 -29 -13 -30
18 -1 l23 21 28 -24 27 -24 -24 28 -24 27 24 27 c17 20 18 23 3 10 -26 -22
-37 -22 -59 3 -20 22 -35 26 -35 10z"/>
</g>
</svg>
