<?xml version="1.0" standalone="no"?>
<!DOCTYPE svg PUBLIC "-//W3C//DTD SVG 20010904//EN"
 "http://www.w3.org/TR/2001/REC-SVG-20010904/DTD/svg10.dtd">
<svg version="1.0" xmlns="http://www.w3.org/2000/svg"
 width="234.000000pt" height="260.000000pt" viewBox="0 0 234.000000 260.000000"
 preserveAspectRatio="xMidYMid meet">

<g transform="translate(0.000000,260.000000) scale(0.100000,-0.100000)"
fill="#000000" stroke="none">
<path d="M1252 2237 l-52 -53 0 -297 0 -297 -50 0 -50 0 0 -50 0 -50 -75 0
-75 0 0 -50 0 -50 -75 0 -75 0 0 -50 0 -50 -50 0 -50 0 0 -50 0 -50 -100 0
-100 0 0 50 0 50 -50 0 -50 0 0 50 0 50 -50 0 -50 0 0 80 c0 67 -3 83 -20 100
-11 11 -24 20 -30 20 -6 0 -19 -9 -30 -20 -19 -19 -20 -33 -20 -325 l0 -305
50 0 50 0 0 -50 0 -50 50 0 50 0 0 -50 0 -50 50 0 50 0 0 -50 0 -50 50 0 50 0
0 -50 0 -50 50 0 50 0 0 -180 c0 -216 2 -220 100 -220 47 0 64 4 80 20 11 11
20 24 20 30 0 21 -41 50 -70 50 -29 0 -30 1 -30 50 l0 50 50 0 50 0 0 50 0 50
50 0 50 0 0 50 0 50 100 0 100 0 0 -80 c0 -104 13 -120 100 -120 47 0 64 4 80
20 11 11 20 25 20 30 0 21 -41 50 -70 50 l-30 0 0 100 0 100 50 0 50 0 0 50 0
50 50 0 50 0 0 75 0 75 50 0 50 0 0 215 0 215 50 0 50 0 0 -50 c0 -37 5 -55
20 -70 25 -25 35 -25 60 0 16 16 20 33 20 85 0 92 -15 105 -120 105 l-80 0 0
95 0 95 180 0 c167 0 181 1 200 20 11 11 20 27 20 35 0 8 -9 24 -20 35 -18 18
-33 20 -150 20 l-130 0 0 45 0 45 205 0 c192 0 206 1 225 20 19 19 20 33 20
203 l0 183 -53 52 -53 52 -370 0 -370 0 -52 -53z m248 -102 l0 -45 -50 0 -50
0 0 45 0 45 50 0 50 0 0 -45z"/>
</g>
</svg>
