<?xml version="1.0" standalone="no"?>
<!DOCTYPE svg PUBLIC "-//W3C//DTD SVG 20010904//EN"
 "http://www.w3.org/TR/2001/REC-SVG-20010904/DTD/svg10.dtd">
<svg version="1.0" xmlns="http://www.w3.org/2000/svg"
 width="290.000000pt" height="260.000000pt" viewBox="0 0 290.000000 260.000000"
 preserveAspectRatio="xMidYMid meet">

<g transform="translate(0.000000,260.000000) scale(0.100000,-0.100000)"
fill="#000000" stroke="none">
<path d="M1902 1387 l-52 -53 0 -72 0 -72 -125 0 -125 0 0 50 0 50 -450 0
-450 0 0 -50 0 -50 -150 0 -150 0 0 30 c0 58 -26 70 -150 70 -97 0 -112 -2
-130 -20 -11 -11 -20 -27 -20 -35 0 -25 38 -55 70 -55 l30 0 0 -120 0 -120 50
0 50 0 0 -50 0 -50 50 0 50 0 0 -50 0 -50 50 0 50 0 0 -50 0 -50 50 0 50 0 0
-50 0 -50 50 0 50 0 0 -130 c0 -117 2 -132 20 -150 29 -29 131 -29 160 0 11
11 20 25 20 30 0 21 -41 50 -70 50 -29 0 -30 1 -30 50 l0 50 50 0 50 0 0 50 0
50 100 0 100 0 0 -50 0 -50 50 0 50 0 0 -130 c0 -117 2 -132 20 -150 29 -29
131 -29 160 0 11 11 20 25 20 30 0 21 -41 50 -70 50 l-30 0 0 200 0 200 115 0
115 0 0 -80 c0 -105 13 -120 105 -120 52 0 69 4 85 20 11 11 20 25 20 30 0 27
-41 50 -90 50 l-50 0 0 50 0 50 50 0 50 0 0 75 0 75 75 0 75 0 0 -30 0 -30
380 0 c367 0 381 1 400 20 11 11 20 27 20 35 0 8 -9 24 -20 35 -18 18 -33 20
-150 20 l-130 0 0 45 0 45 205 0 c192 0 206 1 225 20 19 19 20 33 20 203 l0
183 -53 52 -53 52 -370 0 -370 0 -52 -53z m248 -102 l0 -45 -50 0 -50 0 0 45
0 45 50 0 50 0 0 -45z"/>
</g>
</svg>
